# Blender 4.3.2
# www.blender.org
o Chips.001
v 1.410199 0.108815 1.866633
v 1.410199 0.108815 0.529300
v 1.410199 0.110035 1.866633
v 1.410199 0.110035 0.529300
v 0.566563 0.118471 1.982744
v 0.566563 0.118471 0.413189
v 0.566563 0.221955 0.413190
v 0.566563 0.221955 1.982744
v 1.581574 0.109425 1.802413
v 1.581574 0.109425 0.593520
v 0.123193 0.189659 1.992591
v 0.123193 0.189659 0.403342
v 0.123193 0.300160 0.403342
v 0.123193 0.300160 1.992591
v 0.917275 -0.034951 2.003636
v 0.917274 -0.034951 0.519101
v 0.917274 0.042441 0.519101
v 0.917274 0.042441 2.003636
v -1.274889 0.108815 1.866633
v -1.274889 0.108815 0.529300
v -1.274889 0.110035 1.866633
v -1.274889 0.110035 0.529300
v -1.446264 0.109425 1.802413
v -1.446264 0.109425 0.593520
v 1.410199 0.109425 0.189967
v 1.410199 0.109425 2.205966
v 0.566563 0.170214 2.424935
v 0.566563 0.170214 -0.029001
v 1.581574 0.109425 0.161611
v 1.581574 0.109425 2.234322
v 0.123193 0.244909 2.449130
v 0.123193 0.244909 -0.053197
v 0.917274 0.003745 2.407325
v 0.917274 0.003745 0.115411
v -1.274889 0.109425 0.189967
v -1.274889 0.109425 2.205966
v -1.446264 0.109425 0.161611
v -1.446264 0.109425 2.234322
v 1.161083 0.134442 1.819179
v 1.410199 0.108724 1.197967
v 1.410199 0.109776 0.233883
v 1.410199 0.110126 1.197967
v 1.410199 0.109075 2.162050
v 0.566563 0.140462 2.354720
v 0.566563 0.229717 1.197967
v 0.566563 0.199965 0.041213
v 0.566563 0.110710 1.197967
v 1.581574 0.109425 1.197967
v 1.581574 0.109425 0.238890
v 1.581574 0.109425 2.157043
v 1.493648 0.111847 0.519965
v 1.493648 0.111847 1.875968
v 1.493648 0.099993 1.875968
v 1.493648 0.099993 0.519965
v 0.123193 0.213140 2.374295
v 0.123193 0.308448 1.197967
v 0.123193 0.276679 0.021639
v 0.123193 0.181371 1.197967
v 1.161083 0.134442 0.403567
v 1.161083 0.179989 0.403567
v 1.161083 0.179989 1.819179
v 0.917274 -0.018505 2.347097
v 0.917274 0.048246 1.261368
v 0.917274 0.025995 0.175639
v 0.917274 -0.040755 1.261368
v -1.025773 0.148056 1.905772
v -1.274889 0.108724 1.197967
v -1.274889 0.109776 0.233883
v -1.274889 0.110127 1.197967
v -1.274889 0.109075 2.162050
v -0.547354 0.009584 0.429802
v -0.547354 0.104685 0.429802
v -0.547354 0.104685 1.966131
v -1.446264 0.109425 1.197967
v -1.446264 0.109425 0.238890
v -1.446264 0.109425 2.157043
v -1.358338 0.154942 0.519965
v -1.358338 0.154942 1.875968
v -1.358338 0.122069 1.875968
v -1.358338 0.122069 0.519965
v -0.097428 0.055154 0.405268
v -0.097428 0.163697 0.405268
v -0.097428 0.163697 1.990666
v -0.097428 0.055154 1.990665
v -0.547354 0.009584 1.966131
v -1.025773 0.148056 0.490161
v -1.025773 0.193603 0.490161
v -1.025773 0.193603 1.905772
v 1.410199 0.109075 0.233883
v 1.410199 0.109776 2.162050
v 0.566563 0.199965 2.354720
v 0.566563 0.140462 0.041213
v 0.123193 0.276679 2.374294
v 0.123193 0.213140 0.021639
v 0.917274 0.025995 2.347097
v 0.917274 -0.018505 0.175639
v -1.274889 0.109075 0.233883
v -1.274889 0.109776 2.162050
v -0.547354 0.057135 0.003527
v -0.547354 0.057135 2.392406
v -0.097428 0.109425 2.443327
v -0.097428 0.109425 -0.047394
v -1.378379 0.138506 0.139564
v -1.378379 0.138506 2.256370
v -1.025773 0.170829 2.279404
v -1.025773 0.170829 0.116529
v 1.513689 0.105920 0.139564
v 1.513689 0.105920 2.256370
v 1.161083 0.157216 2.192811
v 1.161083 0.157216 0.029935
v 1.161083 0.131026 1.111373
v 1.161083 0.170311 0.082558
v 1.161083 0.183405 1.111373
v 1.161083 0.144121 2.140188
v 1.490351 0.112737 1.197967
v 1.490351 0.099104 1.197967
v 1.506747 0.109466 2.204828
v 1.506747 0.102375 0.191105
v -1.025773 0.144640 1.197967
v -1.025773 0.183924 0.169152
v -1.025773 0.197019 1.197967
v -1.025773 0.157734 2.226782
v -1.355041 0.157409 1.197967
v -1.355041 0.119603 1.197967
v -1.371437 0.148338 2.204828
v -1.371437 0.128673 0.191105
v -0.097428 0.140631 0.026082
v -0.097428 0.078219 2.369851
v -0.097428 0.047013 1.197967
v -0.097428 0.171838 1.197967
v -0.547354 0.029793 2.326464
v -0.547354 0.111818 1.197967
v -0.547354 0.084476 0.069469
v -0.547354 0.002451 1.197967
v -0.547354 0.029793 0.069469
v -0.547354 0.084476 2.326464
v -0.097428 0.140631 2.369851
v -0.097428 0.078219 0.026082
v -1.371437 0.148338 0.191105
v -1.371437 0.128673 2.204828
v -1.025773 0.183924 2.226782
v -1.025773 0.157734 0.169151
v 1.506747 0.109466 0.191105
v 1.506747 0.102375 2.204828
v 1.161083 0.170311 2.140188
v 1.161083 0.144121 0.082558
vn -0.0741 0.9969 -0.0272
vn -0.2532 0.9674 -0.0104
vn -0.2548 0.9670 0.0001
vn -0.0755 0.9971 -0.0008
vn 0.1046 0.9945 -0.0067
vn 0.0956 0.9954 -0.0000
vn 0.1001 0.9950 0.0067
vn -0.2485 0.9686 0.0108
vn -0.0737 0.9971 0.0195
vn -0.1407 0.2897 0.9467
vn 0.0277 -0.1998 0.9795
vn 0.1306 -0.9892 0.0659
vn -0.0006 -0.9971 0.0755
vn -0.6106 0.1177 0.7831
vn -0.2651 -0.9637 0.0312
vn -0.2724 -0.9622 0.0065
vn 0.1227 -0.9924 0.0128
vn 0.0008 -0.9998 0.0186
vn 0.1146 -0.9934 0.0004
vn -0.0003 -1.0000 -0.0007
vn -0.2765 -0.9610 -0.0000
vn -0.2686 -0.9632 -0.0064
vn 0.1161 -0.9932 -0.0110
vn -0.0008 -0.9998 -0.0219
vn -0.2359 0.1932 -0.9524
vn -0.3798 -0.3753 -0.8455
vn -0.2515 0.9668 -0.0454
vn -0.0700 0.9909 -0.1150
vn -0.1074 0.0275 -0.9938
vn 0.1293 0.9911 -0.0316
vn 0.0212 -0.9998 -0.0020
vn 0.0271 -0.9996 -0.0000
vn -0.0033 -1.0000 -0.0000
vn -0.0035 -1.0000 -0.0017
vn 0.0212 -0.9998 0.0020
vn -0.0035 -1.0000 0.0017
vn -0.9999 -0.0000 0.0164
vn -1.0000 -0.0000 -0.0000
vn -0.9999 -0.0000 -0.0164
vn 0.1039 0.9946 0.0027
vn 0.1121 0.9937 -0.0000
vn -0.0013 1.0000 -0.0000
vn -0.0034 1.0000 0.0017
vn 0.1039 0.9946 -0.0027
vn -0.0034 1.0000 -0.0017
vn 0.6402 -0.0001 -0.7682
vn 0.0083 -0.9999 -0.0096
vn -0.0027 -1.0000 -0.0081
vn -0.0283 -0.0000 -0.9996
vn -0.9951 -0.0000 -0.0993
vn -0.8256 0.0001 -0.5643
vn 0.6402 0.0001 0.7682
vn 0.0855 0.9963 0.0117
vn -0.0076 0.9999 0.0082
vn -0.0283 -0.0000 0.9996
vn -0.9951 -0.0000 0.0993
vn -0.8256 -0.0001 0.5643
vn 0.2834 0.9587 -0.0221
vn -0.0963 0.9950 -0.0264
vn -0.0977 0.9882 -0.1181
vn 0.2961 0.9505 -0.0938
vn -0.3291 -0.9377 0.1119
vn 0.0874 -0.9891 0.1182
vn -0.0274 -0.0000 0.9996
vn -0.2341 -0.0377 0.9715
vn -0.0963 0.9950 0.0264
vn -0.0961 0.9954 -0.0000
vn 0.2804 0.9599 0.0004
vn 0.2787 0.9601 0.0244
vn -0.0274 -0.0000 -0.9996
vn -0.1091 -0.0839 -0.9905
vn 0.0882 -0.9957 -0.0264
vn 0.0879 -0.9961 -0.0000
vn -0.3196 -0.9476 0.0004
vn -0.3166 -0.9483 -0.0227
vn 0.0874 -0.9891 -0.1182
vn -0.2977 -0.9494 -0.1006
vn 0.0882 -0.9957 0.0264
vn -0.3209 -0.9468 0.0246
vn -0.0540 0.9941 0.0936
vn 0.2538 0.9605 0.1143
vn 0.0970 0.9953 -0.0000
vn 0.0949 0.9952 0.0220
vn 0.1439 0.9895 0.0147
vn 0.1469 0.9892 -0.0000
vn -0.0201 -0.9946 -0.1016
vn -0.0240 -0.9972 -0.0703
vn -0.0153 -0.9998 -0.0149
vn -0.0255 -0.9994 -0.0221
vn -0.1557 0.9878 0.0067
vn -0.1490 0.9888 -0.0000
vn 0.1439 0.9895 -0.0147
vn -0.1557 0.9878 -0.0067
vn -0.0201 -0.9946 0.1016
vn -0.0255 -0.9994 0.0221
vn -0.0153 -0.9998 0.0148
vn -0.0240 -0.9972 0.0703
vn 0.0949 0.9952 -0.0220
vn 0.3180 -0.9481 0.0064
vn 0.3035 -0.9523 0.0312
vn 0.2827 -0.0000 0.9592
vn 0.4186 -0.0000 0.9082
vn -0.0250 -0.9997 -0.0000
vn -0.0103 -0.9999 -0.0000
vn 0.1761 -0.0000 0.9844
vn 0.3180 -0.9481 -0.0064
vn 0.3239 -0.9461 -0.0000
vn 0.0945 0.9904 -0.1012
vn 0.1424 0.9874 -0.0696
vn -0.1716 0.9846 -0.0323
vn 0.2827 -0.0000 -0.9592
vn 0.4186 -0.0000 -0.9082
vn -0.4697 -0.8828 -0.0081
vn 0.0029 -1.0000 -0.0047
vn -0.0091 -1.0000 -0.0000
vn -0.4910 -0.8711 -0.0000
vn 0.9999 -0.0000 -0.0164
vn 1.0000 0.0001 -0.0000
vn 0.9999 -0.0000 0.0164
vn 0.0029 -1.0000 0.0047
vn -0.4697 -0.8828 0.0081
vn 0.1566 0.9877 0.0034
vn 0.0038 1.0000 0.0047
vn 0.0075 1.0000 -0.0000
vn 0.1458 0.9893 -0.0000
vn 0.0038 1.0000 -0.0047
vn 0.1566 0.9877 -0.0034
vn -0.6613 -0.0000 -0.7501
vn 0.0289 -0.0000 -0.9996
vn 0.0308 -0.9993 -0.0219
vn -0.4177 -0.9079 -0.0337
vn 0.8256 -0.0000 -0.5643
vn 0.9951 -0.0000 -0.0993
vn -0.6613 0.0001 0.7501
vn 0.0289 -0.0000 0.9996
vn -0.0103 0.9997 0.0219
vn 0.1802 0.9834 0.0189
vn 0.8256 0.0001 0.5643
vn 0.9951 -0.0000 0.0992
vn 0.2853 -0.9519 0.1118
vn 0.2826 -0.9589 0.0248
vn 0.0840 -0.0000 0.9965
vn -0.2601 0.9656 -0.0000
vn -0.2605 0.9652 -0.0250
vn -0.2571 0.9598 -0.1127
vn 0.0840 -0.0000 -0.9965
vn 0.2824 -0.9593 -0.0000
vn -0.2605 0.9652 0.0250
vn 0.2826 -0.9589 -0.0248
vn 0.2853 -0.9519 -0.1118
vn 0.0945 0.9904 0.1012
vn -0.2571 0.9598 0.1127
vn 0.1424 0.9874 0.0696
vn 0.1761 -0.0000 -0.9844
vn -0.0977 0.9882 0.1182
vn 0.0308 -0.9993 0.0219
vn -0.4177 -0.9080 0.0338
vn -0.0103 0.9997 -0.0219
vn 0.1802 0.9834 -0.0189
vn 0.3035 -0.9523 -0.0312
vn -0.1716 0.9846 0.0323
vn -0.0437 -0.9937 -0.1033
vn 0.0083 -0.9999 0.0096
vn -0.0027 -1.0000 0.0081
vn 0.0855 0.9963 -0.0117
vn -0.0076 0.9999 -0.0082
vn 0.1156 -0.9918 -0.0549
vn -0.2457 -0.9689 -0.0309
vn -0.2433 0.9682 0.0572
vn 0.1075 0.9937 0.0329
vt 0.879474 0.432168
vt 0.874272 0.481741
vt 0.746750 0.482200
vt 0.746346 0.431539
vt 0.867727 0.535428
vt 0.747197 0.538138
vt 0.626638 0.537352
vt 0.619238 0.483776
vt 0.613245 0.434293
vt 0.102671 0.918387
vt 0.059166 0.898854
vt 0.064549 0.877696
vt 0.111064 0.885453
vt 0.015555 0.877334
vt 0.015473 0.868594
vt 0.010890 0.811124
vt 0.064544 0.816100
vt 0.113742 0.819708
vt 0.065052 0.684922
vt 0.115559 0.686381
vt 0.009499 0.683318
vt 0.018265 0.555805
vt 0.072116 0.553934
vt 0.121441 0.553171
vt 0.116084 0.454018
vt 0.071524 0.471007
vt 0.062193 0.451443
vt 0.105019 0.421278
vt 0.026744 0.489974
vt 0.021015 0.484131
vt 0.933717 0.486973
vt 0.920895 0.535365
vt 0.945218 0.439413
vt 0.636275 0.557405
vt 0.756563 0.557405
vt 0.756563 0.571823
vt 0.634596 0.572417
vt 0.876850 0.557405
vt 0.878530 0.572417
vt 0.865297 0.588073
vt 0.756562 0.588086
vt 0.756564 0.588086
vt 0.647829 0.588073
vt 0.647829 0.588073
vt 0.756564 0.588086
vt 0.756562 0.588085
vt 0.865297 0.588073
vt 0.575232 0.557405
vt 0.583132 0.557405
vt 0.575436 0.574773
vt 0.566165 0.576022
vt 0.647826 0.588158
vt 0.584033 0.588251
vt 0.584026 0.588242
vt 0.570129 0.588236
vt 0.937894 0.557405
vt 0.929993 0.557405
vt 0.937689 0.574773
vt 0.946961 0.576022
vt 0.865300 0.588158
vt 0.929092 0.588251
vt 0.929100 0.588242
vt 0.942996 0.588236
vt 0.886563 0.347307
vt 0.887613 0.267931
vt 0.964498 0.267317
vt 0.960378 0.351375
vt 0.193858 0.898631
vt 0.272197 0.904138
vt 0.270800 0.952487
vt 0.187592 0.942957
vt 0.602486 0.270207
vt 0.745049 0.269069
vt 0.745672 0.347119
vt 0.604803 0.349556
vt 0.195901 0.389577
vt 0.287274 0.382167
vt 0.285901 0.429679
vt 0.202282 0.434390
vt 0.282350 0.552627
vt 0.278351 0.691083
vt 0.200119 0.688824
vt 0.205011 0.551377
vt 0.284505 0.478029
vt 0.205978 0.479005
vt 0.274351 0.829540
vt 0.197069 0.826324
vt 0.547625 0.442586
vt 0.531062 0.354802
vt 0.744103 0.150471
vt 0.606488 0.149836
vt 0.615827 0.056397
vt 0.743348 0.055938
vt 0.403120 0.489509
vt 0.492152 0.504470
vt 0.492158 0.566067
vt 0.399744 0.558975
vt 0.622371 0.002710
vt 0.742902 0.000000
vt 0.870861 0.054361
vt 0.863460 0.000785
vt 0.391277 0.899524
vt 0.391916 0.829978
vt 0.484585 0.828233
vt 0.481024 0.889726
vt 0.881690 0.147640
vt 0.538437 0.826362
vt 0.530544 0.883471
vt 0.485177 0.911160
vt 0.529957 0.892192
vt 0.397228 0.694517
vt 0.491649 0.697244
vt 0.397034 0.940208
vt 0.545811 0.571043
vt 0.547203 0.698849
vt 0.952203 0.140336
vt 0.930215 0.048181
vt 0.916622 0.000000
vt 0.497535 0.483312
vt 0.507980 0.464319
vt 0.547203 0.499330
vt 0.541146 0.504833
vt 0.756563 0.571824
vt 0.647829 0.588073
vt 0.756564 0.588085
vt 0.756562 0.588085
vt 0.865297 0.588073
vt 0.878530 0.572417
vt 0.876850 0.557405
vt 0.865297 0.588073
vt 0.756562 0.588085
vt 0.756564 0.588085
vt 0.647829 0.588073
vt 0.575232 0.557405
vt 0.566165 0.576022
vt 0.575437 0.574773
vt 0.583132 0.557405
vt 0.570129 0.588236
vt 0.584033 0.588251
vt 0.647826 0.588157
vt 0.937893 0.557405
vt 0.946961 0.576022
vt 0.937689 0.574773
vt 0.929993 0.557405
vt 0.942996 0.588236
vt 0.929099 0.588242
vt 0.929092 0.588251
vt 0.865300 0.588157
vt 0.311180 0.904574
vt 0.312722 0.830563
vt 0.312451 0.951653
vt 0.744740 0.230344
vt 0.887213 0.228509
vt 0.962632 0.225506
vt 0.327435 0.432916
vt 0.332794 0.385852
vt 0.317167 0.692204
vt 0.602256 0.230784
vt 0.320715 0.553820
vt 0.323448 0.479843
vt 0.406548 0.980865
vt 0.315085 0.998948
vt 0.494508 0.930724
vt 0.411216 0.449225
vt 0.526799 0.228984
vt 0.535868 0.143659
vt 0.556381 0.051164
vt 0.525601 0.270820
vt 0.269428 1.000000
vt 0.929092 0.588251
vt 0.929100 0.588242
vt 0.942996 0.588236
vt 0.647826 0.588157
vt 0.584026 0.588242
vt 0.541228 0.513573
vt 0.535686 0.898035
vt 0.569204 0.002773
vt 0.178635 0.987328
vt 0.089735 0.950434
vt 0.122562 0.487382
vt 0.423060 0.409184
vt 0.942996 0.588236
vt 0.929092 0.588251
vt 0.865300 0.588158
vt 0.570129 0.588236
vt 0.584026 0.588242
vt 0.647826 0.588158
vt 0.075677 0.492441
vt 0.026158 0.498695
vt 0.559883 0.489957
vt 0.573477 0.538138
vt 0.048721 0.917847
vt 0.009499 0.882837
s 1
f 15/1/1 39/2/2 111/3/3 65/4/4
f 39/2/2 1/5/5 40/6/6 111/3/3
f 111/3/3 40/6/6 2/7/7 59/8/8
f 65/4/4 111/3/3 59/8/8 16/9/9
f 34/10/10 110/11/11 112/12/12 64/13/13
f 110/11/11 25/14/14 41/15/15 112/12/12
f 112/12/12 41/15/15 4/16/16 60/17/17
f 64/13/13 112/12/12 60/17/17 17/18/18
f 17/18/18 60/17/17 113/19/19 63/20/20
f 60/17/17 4/16/16 42/21/21 113/19/19
f 113/19/19 42/21/21 3/22/22 61/23/23
f 63/20/20 113/19/19 61/23/23 18/24/24
f 33/25/25 109/26/26 114/27/27 62/28/28
f 109/26/26 26/29/29 43/30/30 114/27/27
f 114/31/27 43/32/30 1/5/5 39/2/2
f 62/33/28 114/31/27 39/2/2 15/1/1
f 3/34/31 42/35/32 115/36/33 52/37/34
f 42/35/32 4/38/35 51/39/36 115/36/33
f 115/36/33 51/39/36 10/40/37 48/41/38
f 52/37/34 115/36/33 48/42/38 9/43/39
f 2/38/40 40/35/41 116/36/42 54/39/43
f 40/35/41 1/34/44 53/37/45 116/36/42
f 116/36/42 53/37/45 9/44/39 48/45/38
f 54/39/43 116/36/42 48/46/38 10/47/37
f 26/48/46 90/49/47 117/50/48 108/51/49
f 90/49/47 3/34/31 52/37/34 117/50/48
f 117/50/48 52/37/34 9/52/39 50/53/50
f 108/51/49 117/50/48 50/54/50 30/55/51
f 25/56/52 89/57/53 118/58/54 107/59/55
f 89/57/53 2/38/40 54/39/43 118/58/54
f 118/58/54 54/39/43 10/60/37 49/61/56
f 107/59/55 118/58/54 49/62/56 29/63/57
f 5/64/58 11/65/59 55/66/60 44/67/61
f 46/68/62 57/69/63 32/70/64 28/71/65
f 12/72/66 58/73/67 47/74/68 6/75/69
f 44/76/61 55/77/60 31/78/70 27/79/71
f 14/80/72 56/81/73 45/82/74 8/83/75
f 47/74/68 58/73/67 11/65/59 5/64/58
f 27/79/71 31/78/70 93/84/76 91/85/77
f 45/82/74 56/81/73 13/86/78 7/87/79
f 44/67/61 62/33/28 15/1/1 5/64/58
f 17/18/18 63/20/20 45/82/74 7/87/79
f 45/82/74 63/20/20 18/24/24 8/83/75
f 34/10/10 64/13/13 46/68/62 28/71/65
f 46/68/62 64/13/13 17/18/18 7/87/79
f 5/64/58 15/1/1 65/4/4 47/74/68
f 47/74/68 65/4/4 16/9/9 6/75/69
f 16/9/9 96/88/80 92/89/81 6/75/69
f 134/90/82 71/91/83 86/92/84 119/93/85
f 136/94/86 141/95/87 88/96/88 73/97/89
f 119/93/85 86/92/84 20/98/90 67/99/91
f 66/100/92 119/93/85 67/99/91 19/101/93
f 133/102/94 72/103/95 87/104/96 120/105/97
f 85/106/98 134/90/82 119/93/85 66/100/92
f 120/105/97 87/104/96 22/107/99 68/108/100
f 106/109/101 120/105/97 68/108/100 35/110/102
f 132/111/103 73/97/89 88/96/88 121/112/104
f 99/113/105 133/102/94 120/105/97 106/109/101
f 121/112/104 88/96/88 21/114/106 69/115/107
f 87/104/96 121/112/104 69/115/107 22/107/99
f 131/116/108 85/106/98 66/100/92 122/117/109
f 72/103/95 132/111/103 121/112/104 87/104/96
f 122/117/109 66/100/92 19/101/93 70/118/110
f 105/119/111 122/120/109 70/121/110 36/122/112
f 21/34/113 78/37/114 123/123/115 69/35/116
f 78/37/114 23/124/117 74/125/118 123/123/115
f 123/123/115 74/126/118 24/127/119 77/128/120
f 69/35/116 123/123/115 77/128/120 22/129/121
f 20/129/122 80/128/123 124/123/124 67/35/125
f 80/128/123 24/130/119 74/131/118 124/123/124
f 124/123/124 74/132/118 23/133/117 79/37/126
f 67/35/125 124/123/124 79/37/126 19/34/127
f 36/134/128 104/135/129 125/136/130 98/137/131
f 104/135/129 38/138/132 76/54/133 125/136/130
f 125/136/130 76/139/133 23/140/117 78/37/114
f 98/137/131 125/136/130 78/37/114 21/34/113
f 35/141/134 103/142/135 126/143/136 97/144/137
f 103/142/135 37/145/138 75/146/139 126/143/136
f 126/143/136 75/147/139 24/148/119 80/128/123
f 97/144/137 126/143/136 80/128/123 20/129/122
f 72/103/95 133/102/94 127/149/140 82/150/141
f 102/151/142 32/70/64 57/69/63 127/149/140
f 127/149/140 57/69/63 13/86/78 82/150/141
f 129/152/143 134/90/82 85/106/98 84/153/144
f 84/153/144 85/106/98 131/116/108 128/154/145
f 101/155/146 31/78/70 55/77/60 128/156/145
f 128/154/145 55/66/60 11/65/59 84/153/144
f 130/157/147 132/111/103 72/103/95 82/150/141
f 71/91/83 134/90/82 129/152/143 81/158/148
f 84/153/144 11/65/59 58/73/67 129/152/143
f 129/152/143 58/73/67 12/72/66 81/158/148
f 73/97/89 83/159/149 137/160/150 136/94/86
f 73/97/89 132/111/103 130/157/147 83/159/149
f 82/150/141 13/86/78 56/81/73 130/157/147
f 130/157/147 56/81/73 14/80/72 83/159/149
f 127/149/140 133/102/94 99/113/105 102/151/142
f 135/161/151 138/162/152 102/151/142 99/113/105
f 7/87/79 13/86/78 57/69/63 46/68/62
f 33/25/25 62/28/28 44/76/61 27/79/71
f 99/113/105 106/109/101 142/163/153 135/161/151
f 136/94/86 137/160/150 101/155/146 100/164/154
f 71/91/83 81/158/148 138/165/152 135/166/151
f 135/166/151 142/167/153 86/92/84 71/91/83
f 100/164/154 105/119/111 141/95/87 136/94/86
f 83/159/149 14/80/72 93/84/76 137/160/150
f 137/160/150 93/84/76 31/78/70 101/155/146
f 81/158/148 12/72/66 94/168/155 138/165/152
f 138/162/152 94/169/155 32/70/64 102/151/142
f 22/129/121 77/128/120 139/143/156 68/144/157
f 77/128/120 24/148/119 75/170/139 139/143/156
f 139/143/156 75/171/139 37/172/138 103/142/135
f 68/144/157 139/143/156 103/142/135 35/141/134
f 19/34/127 79/37/126 140/136/158 70/137/159
f 79/37/126 23/173/117 76/139/133 140/136/158
f 140/136/158 76/174/133 38/138/132 104/135/129
f 70/137/159 140/136/158 104/135/129 36/134/128
f 141/95/87 105/119/111 36/122/112 98/175/160
f 88/96/88 141/95/87 98/175/160 21/114/106
f 142/163/153 106/109/101 35/110/102 97/176/161
f 86/92/84 142/167/153 97/177/161 20/98/90
f 92/178/81 96/179/80 34/10/10 28/71/65
f 18/24/24 95/180/162 91/85/77 8/83/75
f 91/85/77 95/180/162 33/25/25 27/79/71
f 28/71/65 32/70/64 94/169/155 92/178/81
f 91/85/77 93/84/76 14/80/72 8/83/75
f 100/164/154 131/181/108 122/120/109 105/119/111
f 92/89/81 94/168/155 12/72/66 6/75/69
f 4/38/35 41/57/163 143/58/164 51/39/36
f 41/57/163 25/56/52 107/59/55 143/58/164
f 143/58/164 107/59/55 29/182/57 49/62/56
f 51/39/36 143/58/164 49/183/56 10/184/37
f 1/34/44 43/49/165 144/50/166 53/37/45
f 43/49/165 26/48/46 108/51/49 144/50/166
f 144/50/166 108/51/49 30/185/51 50/186/50
f 53/37/45 144/50/166 50/53/50 9/187/39
f 18/24/24 61/23/23 145/188/167 95/180/162
f 61/23/23 3/22/22 90/189/168 145/188/167
f 145/188/167 90/189/168 26/29/29 109/26/26
f 95/180/162 145/188/167 109/26/26 33/25/25
f 16/9/9 59/8/8 146/190/169 96/88/80
f 59/8/8 2/7/7 89/191/170 146/190/169
f 146/192/169 89/193/170 25/14/14 110/11/11
f 96/179/80 146/192/169 110/11/11 34/10/10
f 128/156/145 131/181/108 100/164/154 101/155/146
